<?xml version="1.0" standalone="no"?>
<!DOCTYPE svg PUBLIC "-//W3C//DTD SVG 20010904//EN"
 "http://www.w3.org/TR/2001/REC-SVG-20010904/DTD/svg10.dtd">
<svg version="1.0" xmlns="http://www.w3.org/2000/svg"
 width="16.000000pt" height="16.000000pt" viewBox="0 0 16.000000 16.000000"
 preserveAspectRatio="xMidYMid meet">
<metadata>
Created by potrace 1.11, written by Peter Selinger 2001-2013
</metadata>
<g transform="translate(0.000000,16.000000) scale(0.003556,-0.003556)"
fill="#000000" stroke="none">
<path d="M2105 4210 c-27 -4 -68 -13 -90 -20 -22 -6 -52 -14 -68 -17 -15 -3
-30 -9 -33 -14 -3 -5 -14 -9 -25 -9 -10 0 -27 -4 -37 -9 -18 -9 -63 -28 -97
-41 -83 -32 -209 -92 -213 -102 -2 -4 -9 -8 -16 -8 -7 0 -33 -20 -59 -45 -59
-57 -64 -101 -17 -152 25 -27 131 -85 205 -113 11 -4 43 -18 70 -30 28 -12 59
-26 70 -30 25 -10 84 -35 133 -57 65 -29 122 -73 147 -113 21 -33 25 -52 25
-114 0 -92 -21 -138 -100 -216 -89 -89 -95 -93 -310 -193 -114 -54 -234 -153
-297 -247 -41 -61 -139 -265 -178 -370 -9 -25 -21 -54 -25 -65 -5 -11 -19 -51
-31 -90 -12 -38 -25 -79 -30 -90 -25 -63 -36 -244 -18 -298 30 -91 156 -141
259 -104 65 23 85 39 255 207 181 178 224 208 335 226 57 10 211 10 270 0 176
-28 330 -111 330 -177 0 -53 -60 -96 -243 -178 -92 -42 -157 -119 -157 -187 0
-33 31 -101 62 -134 45 -48 78 -115 78 -156 0 -37 -5 -46 -32 -67 -61 -44 -95
-49 -498 -67 -201 -10 -267 -17 -276 -31 -3 -5 -13 -9 -23 -9 -25 0 -70 -50
-77 -88 -7 -34 11 -71 50 -104 19 -16 102 -59 151 -78 11 -4 43 -18 70 -30 28
-12 59 -26 70 -30 19 -7 33 -14 132 -56 139 -59 214 -107 298 -191 98 -97 231
-176 360 -213 22 -7 54 -16 72 -21 40 -12 337 -12 360 -1 10 5 36 15 58 22 90
29 183 113 226 204 35 76 32 182 -9 257 -29 55 -109 179 -122 189 -3 3 -13 14
-21 26 -8 12 -43 53 -77 92 -287 322 -336 415 -259 495 19 18 60 46 93 62 154
71 188 91 219 127 64 75 57 141 -25 253 -32 44 -61 93 -64 110 -14 72 23 129
109 172 22 11 80 40 129 64 176 87 192 156 73 329 -40 57 -40 58 -175 213
-142 164 -182 218 -221 289 -41 74 -40 108 2 150 29 30 61 48 215 121 100 48
164 133 141 188 -19 46 -83 69 -193 69 -53 0 -98 -4 -101 -10 -3 -5 -16 -10
-28 -10 -24 0 -93 -22 -103 -33 -4 -4 -17 -7 -29 -7 -11 0 -26 -5 -32 -11 -17
-17 -215 -17 -249 1 -64 33 -76 64 -94 240 -24 230 -31 254 -90 301 -29 24
-47 29 -105 33 -38 2 -92 1 -120 -4z m161 -1472 c40 -14 55 -44 39 -76 -20
-39 -47 -51 -105 -51 -103 1 -150 56 -94 112 22 22 36 27 77 27 28 0 65 -5 83
-12z"/>
</g>
</svg>
